<svg xmlns="http://www.w3.org/2000/svg" xmlns:xlink="http://www.w3.org/1999/xlink" width="248.223" height="107.873" viewBox="0 0 248.223 107.873"><defs><style>.a{fill:#00876d;}.b{fill:#00725c;}.c,.f,.k{fill:#1c3c50;}.c{opacity:0.2;}.d{fill:#bcc4c8;}.e{fill:#ebf0f1;}.f{opacity:0.06;}.g{fill:#ced5d8;}.h{fill:#7a8d8e;opacity:0.3;}.i{fill:#00a285;}.j{fill:#fff;}.k{opacity:0.04;}.l{fill:url(#a);}.m{fill:url(#b);}.n{fill:#3bccf6;font-size:30px;font-family:Montserrat-ExtraBold, Montserrat;font-weight:800;}</style><linearGradient id="a" x1="0.5" x2="0.5" y2="1" gradientUnits="objectBoundingBox"><stop offset="0" stop-color="#249d73"/><stop offset="1" stop-color="#137998"/></linearGradient><linearGradient id="b" y1="0.5" x2="1" y2="0.5" gradientUnits="objectBoundingBox"><stop offset="0" stop-color="#3aeaad"/><stop offset="1" stop-color="#2cf"/></linearGradient></defs><g transform="translate(-811.032 -287.081)"><g transform="translate(811.032 287.081)"><path class="a" d="M164.63,94.739l4.7-.806v5.3l-4.7-.258Z" transform="translate(-139.342 -93.932)"/><path class="b" d="M235.278,174.063H178.832V93.932l56.446.806Z" transform="translate(-148.844 -93.932)"/><path class="c" d="M225.771,244.857c0,3.106-5.259,11.687-10.01,11.683-4.961,0-51.28-10.031-51.28-11.683,0-4.763,16.047-44.941,32.972-44.941S225.771,240.094,225.771,244.857Z" transform="translate(-139.243 -164.734)"/><path class="d" d="M222.471,180.319l-57.841-3.305,4.322-78.672,52.5,2.6Z" transform="translate(-139.342 -96.882)"/><path class="e" d="M227.956,180.069l-52.883-3.615-2.245-78.949,55.68,6.113Z" transform="translate(-144.827 -96.323)"/><ellipse class="f" cx="40.219" cy="14.113" rx="40.219" ry="14.113" transform="translate(15.969 69.561)"/><path class="g" d="M224.651,183.374,175.073,174.8l-2.245-77.3,52.375,7.766Z" transform="translate(-144.827 -96.323)"/><path class="h" d="M216.5,182.742l-51.875-6.288,2.713-78.949,50.067,8.61Z" transform="translate(-139.342 -96.323)"/><path class="i" d="M215.861,185.609l-51.231-9.916V96.369l51.231,9.916Z" transform="translate(-139.342 -95.562)"/><g transform="translate(38.543 26.142)"><path class="j" d="M214.487,174.578c0-1.389.7-2.029,2.488-1.666s2.488,1.284,2.488,2.673v5.208l7.315,1.48a2.768,2.768,0,0,1,2.488,2.673c0,1.562-1.194,1.928-2.488,1.667l-17.118-3.463v2.995l17.118,3.463a3.078,3.078,0,0,1,2.488,2.674v7.334a1.9,1.9,0,0,1-2.488,1.667l-7.315-1.48v5.208c0,1.389-.7,2.029-2.488,1.667s-2.488-1.285-2.488-2.673V198.8l-7.316-1.48a2.769,2.769,0,0,1-2.488-2.674c0-1.562,1.194-1.928,2.488-1.666l17.118,3.463v-2.995l-17.118-3.463a3.078,3.078,0,0,1-2.488-2.673v-7.335a1.9,1.9,0,0,1,2.488-1.667l7.316,1.48Z" transform="translate(-204.683 -172.811)"/></g><ellipse class="k" cx="56.188" cy="21.347" rx="56.188" ry="21.347" transform="translate(0 65.179)"/><path class="a" d="M164.63,94.739l4.7-.806v5.3l-4.7-.258Z" transform="translate(-139.342 -93.932)"/><path class="l" d="M235.278,174.063H178.832V93.932l56.446.806Z" transform="translate(-148.844 -93.932)"/><path class="c" d="M225.771,244.857c0,3.106-5.259,11.687-10.01,11.683-4.961,0-51.28-10.031-51.28-11.683,0-4.763,16.047-44.941,32.972-44.941S225.771,240.094,225.771,244.857Z" transform="translate(-139.243 -164.734)"/><path class="d" d="M222.471,180.319l-57.841-3.305,4.322-78.672,52.5,2.6Z" transform="translate(-139.342 -96.882)"/><path class="e" d="M227.956,180.069l-52.883-3.615-2.245-78.949,55.68,6.113Z" transform="translate(-144.827 -96.323)"/><ellipse class="f" cx="40.219" cy="14.113" rx="40.219" ry="14.113" transform="translate(15.969 69.561)"/><path class="g" d="M224.651,183.374,175.073,174.8l-2.245-77.3,52.375,7.766Z" transform="translate(-144.827 -96.323)"/><path class="h" d="M216.5,182.742l-51.875-6.288,2.713-78.949,50.067,8.61Z" transform="translate(-139.342 -96.323)"/><path class="m" d="M215.861,185.609l-51.231-9.916V96.369l51.231,9.916Z" transform="translate(-139.342 -95.562)"/><g transform="translate(38.543 26.142)"><path class="j" d="M214.487,174.578c0-1.389.7-2.029,2.488-1.666s2.488,1.284,2.488,2.673v5.208l7.315,1.48a2.768,2.768,0,0,1,2.488,2.673c0,1.562-1.194,1.928-2.488,1.667l-17.118-3.463v2.995l17.118,3.463a3.078,3.078,0,0,1,2.488,2.674v7.334a1.9,1.9,0,0,1-2.488,1.667l-7.315-1.48v5.208c0,1.389-.7,2.029-2.488,1.667s-2.488-1.285-2.488-2.673V198.8l-7.316-1.48a2.769,2.769,0,0,1-2.488-2.674c0-1.562,1.194-1.928,2.488-1.666l17.118,3.463v-2.995l-17.118-3.463a3.078,3.078,0,0,1-2.488-2.673v-7.335a1.9,1.9,0,0,1,2.488-1.667l7.316,1.48Z" transform="translate(-204.683 -172.811)"/></g><text class="n" transform="translate(112.222 34.22)"><tspan x="0" y="0">Expense</tspan><tspan x="0" y="43">Tracker</tspan></text></g></g></svg>